<svg id="Слой_1" xmlns="http://www.w3.org/2000/svg" xmlns:xlink="http://www.w3.org/1999/xlink" x="0px" y="0px" viewBox="0 0 419.6 419.6" style="enable-background:new 0 0 49.2 67.7;" xml:space="preserve">
 <circle cx="209.8" cy="209.8" r="209.8" fill="yellow" />
<path d="M12.1,14.2c4.3,4.5,4.9,9.9,4.3,15.8c3.8-4.8,5.5-10,4.5-15.9c-1-5.8-3.8-10.6-8.8-14.1c2.1,0.1,4,0.4,5.8,1.1c4.7,1.7,8.6,4.6,11.9,8.2c5,5.4,8.5,11.7,10,19c1.1,5.3,0.9,10.5-1.3,15.6c0,0.1-0.1,0.2-0.2,0.5c0.4-0.2,0.7-0.3,0.9-0.4c1.9-1.1,3.2-2.8,4.1-4.8c1.5-3.2,2.1-6.6,1.5-10.1c0-0.1,0-0.2,0-0.5c0.2,0.2,0.3,0.3,0.3,0.4c2.6,4.1,4,8.5,4,13.4c0,11.9-9.3,23.2-21.1,25c-9.7,1.4-18.1-1.6-24-9.7C-1.1,50.6-1.2,43,3.2,35.4c1.3-2.3,3.1-4.3,4.6-6.4c1.1-1.6,2.2-3.1,3.1-4.8c1.6-2.9,1.9-6.1,1.2-9.3c0-0.1-0.1-0.2-0.1-0.4C12,14.4,12,14.4,12.1,14.2z" fill="red" transform="translate(112,70) scale(4)"></path></svg>